#!OML:ASF H:\Martial Arts Walks\Project 1\Capture day 1\Session 1\male.ASF
:FULLY-SPECIFIED
:DEGREES
1126
root -1.58369 13.2428 28.994 10.7667 -54.2347 -11.1955
lowerback 14.984 6.22968 1.42231
upperback -4.16625 8.73542 0.584184
thorax -12.8916 4.00051 -2.38893
lowerneck -1.96097 8.71432 0.884247
upperneck 5.53149 11.3915 4.02159
head 1.86894 5.78723 1.34972
rclavicle 6.20395e-014 1.47101e-014
rhumerus -54.27 49.9531 -111.114
rradius 114.408
rwrist -80.3231
rhand 5.70769 -29.2149
rfingers 7.12502
rthumb 31.0447 -56.6078
lclavicle 6.20395e-014 1.47101e-014
lhumerus 8.7408 11.5938 78.3981
lradius 87.0977
lwrist -25.0135
lhand -36.7504 45.451
lfingers 7.12502
lthumb -9.8338 -284.799
rfemur -27.6365 -29.7488 12.9702
rtibia 83.2324
rfoot -37.0819 -21.0488
rtoes -17.0846
lfemur -60.3254 42.0385 -7.26459
ltibia 74.5121
lfoot -6.59907 -2.40304
ltoes -2.03154
1127
root -1.58179 13.2406 28.9969 10.7432 -54.2648 -11.1813
lowerback 15.0078 6.22696 1.40772
upperback -4.16529 8.72927 0.583616
thorax -12.9071 3.99796 -2.3831
lowerneck -1.9376 8.71354 0.887748
upperneck 5.50413 11.3922 4.00921
head 1.85682 5.78688 1.34295
rclavicle 1.82571e-014 -2.38542e-015
rhumerus -54.305 49.9734 -111.153
rradius 114.408
rwrist -80.3544
rhand 5.56107 -29.1042
rfingers 7.12502
rthumb 30.905 -56.5237
lclavicle 1.82571e-014 -2.38542e-015
lhumerus 8.74131 11.5945 78.3838
lradius 87.0558
lwrist -24.964
lhand -36.7927 45.5392
lfingers 7.12502
lthumb -9.87462 -284.712
rfemur -27.6455 -29.7104 12.9348
rtibia 83.2616
rfoot -37.0671 -21.0558
rtoes -17.0941
lfemur -60.3243 41.9928 -7.25535
ltibia 74.5754
lfoot -6.57574 -2.29956
ltoes -2.22902
1128
root -1.5796 13.2382 28.9998 10.7186 -54.2999 -11.1625
lowerback 15.0254 6.22723 1.39048
upperback -4.16394 8.72639 0.582441
thorax -12.9186 3.99732 -2.37651
lowerneck -1.92493 8.71704 0.880608
upperneck 5.49034 11.3976 4.01418
head 1.84929 5.78928 1.34437
rclavicle -1.6027e-014 -5.1684e-015
rhumerus -54.3436 49.9911 -111.192
rradius 114.409
rwrist -80.4019
rhand 5.39755 -28.9624
rfingers 7.12502
rthumb 30.7491 -56.4114
lclavicle -1.6027e-014 -5.1684e-015
lhumerus 8.7415 11.5924 78.3751
lradius 87.0139
lwrist -24.912
lhand -36.8459 45.6812
lfingers 7.12502
lthumb -9.92595 -284.573
rfemur -27.6625 -29.6712 12.8971
rtibia 83.2952
rfoot -37.0536 -21.0607
rtoes -17.0984
lfemur -60.3314 41.9491 -7.25466
ltibia 74.6426
lfoot -6.54712 -2.18827
ltoes -2.45149
1129
root -1.57708 13.2357 29.0027 10.6953 -54.3384 -11.1424
lowerback 15.0372 6.22999 1.37349
upperback -4.16198 8.72666 0.580661
thorax -12.9258 3.99833 -2.37071
lowerneck -1.92151 8.72278 0.868008
upperneck 5.48765 11.4052 4.03029
head 1.846 5.7931 1.35104
rclavicle 1.01933e-013 3.45885e-014
rhumerus -54.3789 50.0011 -111.226
rradius 114.409
rwrist -80.4556
rhand 5.24354 -28.8204
rfingers 7.12502
rthumb 30.6022 -56.2969
lclavicle 1.01933e-013 3.45885e-014
lhumerus 8.74179 11.5864 78.3709
lradius 86.9742
lwrist -24.8677
lhand -36.8961 45.8461
lfingers 7.12502
lthumb -9.97444 -284.41
rfemur -27.6865 -29.6298 12.8598
rtibia 83.3328
rfoot -37.0417 -21.0632
rtoes -17.0959
lfemur -60.346 41.9051 -7.25897
ltibia 74.7134
lfoot -6.51266 -2.06921
ltoes -2.69727
1130
root -1.57419 13.2329 29.0056 10.6756 -54.379 -11.1254
lowerback 15.0452 6.23419 1.35962
upperback -4.15911 8.72936 0.578783
thorax -12.9289 4.00041 -2.36674
lowerneck -1.92608 8.72922 0.855406
upperneck 5.49353 11.413 4.05063
head 1.84665 5.79733 1.35981
rclavicle 3.27622e-014 1.98785e-015
rhumerus -54.4057 49.9992 -111.249
rradius 114.411
rwrist -80.5019
rhand 5.12715 -28.714
rfingers 7.12502
rthumb 30.4912 -56.2112
lclavicle 3.27622e-014 1.98785e-015
lhumerus 8.74204 11.5769 78.3689
lradius 86.938
lwrist -24.8377
lhand -36.9315 45.9948
lfingers 7.12502
lthumb -10.0085 -284.263
rfemur -27.7159 -29.5855 12.8255
rtibia 83.3737
rfoot -37.0319 -21.0613
rtoes -17.0825
lfemur -60.3653 41.8577 -7.26273
ltibia 74.7865
lfoot -6.47237 -1.94326
ltoes -2.96073
1131
root -1.57087 13.2299 29.0083 10.6585 -54.4193 -11.1119
lowerback 15.0527 6.23805 1.34872
upperback -4.15477 8.73216 0.577377
thorax -12.9298 4.00243 -2.36372
lowerneck -1.94035 8.73658 0.845729
upperneck 5.50788 11.4214 4.07189
head 1.85187 5.8021 1.36934
rclavicle -1.14674e-014 9.14409e-015
rhumerus -54.4199 49.9851 -111.257
rradius 114.415
rwrist -80.5277
rhand 5.0703 -28.6735
rfingers 7.12502
rthumb 30.437 -56.1807
lclavicle -1.14674e-014 9.14409e-015
lhumerus 8.74158 11.5661 78.3661
lradius 86.9061
lwrist -24.8229
lhand -36.9428 46.1026
lfingers 7.12502
lthumb -10.0195 -284.156
rfemur -27.7492 -29.5377 12.7947
rtibia 83.4179
rfoot -37.0239 -21.0542
rtoes -17.0555
lfemur -60.3854 41.8021 -7.26218
ltibia 74.8593
lfoot -6.42705 -1.81084
ltoes -3.23592
1132
root -1.56706 13.2269 29.0107 10.6429 -54.4578 -11.1024
lowerback 15.0625 6.24005 1.3402
upperback -4.14882 8.73308 0.577339
thorax -12.9301 4.00344 -2.36017
lowerneck -1.96394 8.74522 0.83971
upperneck 5.52952 11.4311 4.09229
head 1.86136 5.80769 1.3789
rclavicle 3.79803e-014 9.54166e-015
rhumerus -54.4237 49.9626 -111.253
rradius 114.42
rwrist -80.5308
rhand 5.0657 -28.6922
rfingers 7.12502
rthumb 30.4326 -56.2003
lclavicle 3.79803e-014 9.54166e-015
lhumerus 8.73872 11.5562 78.3607
lradius 86.8788
lwrist -24.8201
lhand -36.924 46.1536
lfingers 7.12502
lthumb -10.0013 -284.104
rfemur -27.7859 -29.4871 12.7682
rtibia 83.4661
rfoot -37.0171 -21.0425
rtoes -17.0134
lfemur -60.4028 41.7344 -7.25471
ltibia 74.9289
lfoot -6.37808 -1.67238
ltoes -3.51606
1133
root -1.56268 13.2237 29.0128 10.6285 -54.4938 -11.0966
lowerback 15.076 6.23926 1.3331
upperback -4.14131 8.73081 0.57945
thorax -12.931 4.00291 -2.35461
lowerneck -1.994 8.75547 0.835892
upperneck 5.55509 11.4426 4.11199
head 1.8734 5.81431 1.38848
rclavicle 1.37721e-013 5.1684e-015
rhumerus -54.4207 49.9365 -111.244
rradius 114.427
rwrist -80.5127
rhand 5.09664 -28.7501
rfingers 7.12502
rthumb 30.4621 -56.2527
lclavicle 1.37721e-013 5.1684e-015
lhumerus 8.73173 11.5493 78.3516
lradius 86.8556
lwrist -24.8223
lhand -36.874 46.1528
lfingers 7.12502
lthumb -9.95312 -284.103
rfemur -27.8269 -29.4346 12.7461
rtibia 83.5192
rfoot -37.0093 -21.0294
rtoes -16.9592
lfemur -60.4153 41.6523 -7.23926
ltibia 74.9931
lfoot -6.32726 -1.52756
ltoes -3.79749
1134
root -1.5577 13.2204 29.0144 10.6135 -54.5271 -11.0919
lowerback 15.0933 6.23519 1.32545
upperback -4.13235 8.72435 0.583941
thorax -12.9331 4.0005 -2.34548
lowerneck -2.02801 8.76775 0.832473
upperneck 5.5821 11.4566 4.13176
head 1.88659 5.82227 1.39837
rclavicle 1.1045e-014 3.61788e-014
rhumerus -54.4156 49.9125 -111.234
rradius 114.436
rwrist -80.4807
rhand 5.13643 -28.8149
rfingers 7.12502
rthumb 30.5001 -56.3105
lclavicle 1.1045e-014 3.61788e-014
lhumerus 8.71933 11.5471 78.3381
lradius 86.836
lwrist -24.8222
lhand -36.7985 46.1231
lfingers 7.12502
lthumb -9.88022 -284.129
rfemur -27.8742 -29.3819 12.7277
rtibia 83.5786
rfoot -36.9985 -21.019
rtoes -16.898
lfemur -60.4217 41.5539 -7.21717
ltibia 75.0495
lfoot -6.27595 -1.37541
ltoes -4.07932
1135
root -1.55207 13.217 29.0154 10.595 -54.5586 -11.0837
lowerback 15.1139 6.22824 1.31462
upperback -4.12225 8.7136 0.590262
thorax -12.9369 3.99634 -2.3319
lowerneck -2.06399 8.78274 0.82631
upperneck 5.60934 11.4742 4.15444
head 1.89982 5.83203 1.40977
rclavicle 1.22271e-013 1.19271e-015
rhumerus -54.4124 49.8935 -111.23
rradius 114.445
rwrist -80.4431
rhand 5.15985 -28.8571
rfingers 7.12502
rthumb 30.5224 -56.3485
lclavicle 1.22271e-013 1.19271e-015
lhumerus 8.70109 11.5499 78.3197
lradius 86.8187
lwrist -24.8142
lhand -36.706 46.0871
lfingers 7.12502
lthumb -9.79097 -284.161
rfemur -27.9303 -29.329 12.711
rtibia 83.6458
rfoot -36.9829 -21.0152
rtoes -16.8348
lfemur -60.4215 41.4387 -7.19158
ltibia 75.0967
lfoot -6.22448 -1.21497
ltoes -4.36342
